<svg width="300" height="300" viewBox="0 0 300 300" fill="none" xmlns="http://www.w3.org/2000/svg">
<path d="M271.338 141.162L171.337 41.1625C169.589 39.4149 167.362 38.2248 164.938 37.7427C162.513 37.2606 160.001 37.5081 157.717 38.454C155.433 39.3999 153.481 41.0016 152.107 43.0568C150.734 45.1119 150.001 47.5281 150 50V94.3125C115.854 97.4724 84.1153 113.261 60.9961 138.588C37.8769 163.915 25.0409 196.958 25 231.25V250C25.002 252.595 25.8114 255.125 27.3159 257.239C28.8205 259.353 30.9456 260.946 33.3966 261.798C35.8475 262.65 38.5028 262.718 40.9941 261.992C43.4854 261.267 45.6893 259.784 47.3 257.75C59.5481 243.189 74.5743 231.214 91.5012 222.524C108.428 213.834 126.917 208.604 145.887 207.137C146.512 207.062 148.075 206.937 150 206.812V250C150.001 252.472 150.734 254.888 152.107 256.943C153.481 258.998 155.433 260.6 157.717 261.546C160.001 262.492 162.513 262.739 164.938 262.257C167.362 261.775 169.589 260.585 171.337 258.837L271.338 158.837C273.681 156.493 274.997 153.315 274.997 150C274.997 146.685 273.681 143.507 271.338 141.162ZM175 219.825V193.75C175 190.435 173.683 187.255 171.339 184.911C168.995 182.567 165.815 181.25 162.5 181.25C159.313 181.25 146.3 181.875 142.975 182.312C109.285 185.413 77.2159 198.213 50.65 219.163C53.6655 191.593 66.7442 166.104 87.3819 147.577C108.02 129.05 134.766 118.786 162.5 118.75C165.815 118.75 168.995 117.433 171.339 115.089C173.683 112.745 175 109.565 175 106.25V80.175L244.825 150L175 219.825Z" fill="#81B214"/>
</svg>
