<svg width="300" height="300" viewBox="0 0 300 300" fill="none" xmlns="http://www.w3.org/2000/svg">
<path d="M142.334 90.3448C126.387 90.318 106.407 95.3576 86.6966 105.616C67.0173 115.875 51.419 129.314 42.2626 142.439C33.1016 155.52 30.6243 167.705 35.1309 176.395C39.6419 185.041 51.0472 190.013 67.0352 190.013C83.0232 190.058 103.003 184.996 122.668 174.782C142.379 164.524 157.968 151.04 167.107 137.959C176.29 124.879 178.709 112.694 174.23 104.003C169.705 95.3576 158.327 90.3448 142.334 90.3448ZM183.503 121.833C181.935 128.686 178.53 135.72 173.737 142.574C163.613 157.043 147.083 171.154 126.387 181.905C105.69 192.701 84.6807 198.122 67.0308 198.122C58.6985 198.122 50.9756 196.867 44.4666 194.224L49.2106 203.363C53.7261 212.053 65.1 217.026 81.097 217.026C97.0894 217.026 117.069 212.009 136.735 201.75C156.445 191.536 172.035 178.053 181.173 164.927C190.312 151.846 192.82 139.662 188.296 131.016L183.503 121.833ZM196.404 129.358C201.421 141.319 197.39 155.878 187.803 169.541C179.336 181.681 166.39 193.463 150.353 203.318C155.325 203.856 160.522 204.124 165.808 204.124C187.982 204.124 208.051 199.376 222.207 191.984C236.408 184.593 244.202 174.917 244.202 165.151C244.202 155.385 236.408 145.709 222.207 138.318C214.995 134.555 206.215 131.464 196.404 129.358ZM244.202 185.265C239.633 190.596 233.362 195.299 225.97 199.152C210.291 207.305 189.147 212.188 165.808 212.188C156.311 212.188 147.172 211.381 138.616 209.858C128.223 215.1 117.786 218.997 107.751 221.55C108.289 221.864 108.826 222.133 109.409 222.446C123.564 229.838 143.633 234.586 165.808 234.586C187.982 234.586 208.051 229.838 222.207 222.446C236.408 215.055 244.202 205.379 244.202 195.613V185.265Z" fill="#FFCC29"/>
<path d="M160.074 234.138C160.074 183.755 160.074 105.123 160.074 105.123M160.074 105.123C160.074 62.1183 160.074 19.1133 267.587 19.1133C267.587 62.1183 267.587 105.123 160.074 105.123ZM160.074 162.463C160.074 119.458 160.074 76.4533 52.5616 76.4533C52.5616 119.458 52.5616 162.463 160.074 162.463Z" stroke="#81B214" stroke-width="19.1133"/>
<path d="M160.074 234.138C160.074 183.755 160.074 105.123 160.074 105.123ZM160.074 162.463C160.074 119.458 160.074 76.4533 52.5616 76.4533C52.5616 119.458 52.5616 162.463 160.074 162.463ZM160.074 105.123C160.074 62.1183 160.074 19.1133 267.587 19.1133C267.587 62.1183 267.587 105.123 160.074 105.123Z" fill="#A5D44A"/>
<path d="M160.074 234.138C160.074 183.755 160.074 105.123 160.074 105.123M160.074 105.123C160.074 62.1183 160.074 19.1133 267.587 19.1133C267.587 62.1183 267.587 105.123 160.074 105.123ZM160.074 162.463C160.074 119.458 160.074 76.4533 52.5616 76.4533C52.5616 119.458 52.5616 162.463 160.074 162.463Z" stroke="#81B214" stroke-width="19.1133"/>
</svg>
